<svg xmlns="http://www.w3.org/2000/svg" viewBox="0 0 83.98 96.81"><defs><style>.cls-1{fill:#9b9b9b;}</style></defs><g id="Layer_2" data-name="Layer 2"><g id="Layer_1-2" data-name="Layer 1"><g id="Layer_1-2-2" data-name="Layer 1-2-2"><path class="cls-1" d="M48.38,47.91V96.3a36.89,36.89,0,0,0,4.46.51h.62V47.56A34.51,34.51,0,0,0,48.38,47.91ZM68,50.6V94.28c9.15-3.82,15.54-11.47,16-20.57C84.4,63.88,77.87,55,68,50.6Zm-9.8-2.73V96.7a32,32,0,0,0,5.06-.86v-47a34.7,34.7,0,0,0-5-1ZM74.69,5.35A62.43,62.43,0,0,1,57.57,2.78C39.46-2.9,28.78.17,16.93,11.58h0c-2.15,2.09-4.36,4.48-6.68,7.13A66.35,66.35,0,0,0,0,30.65C2.87,27,15.4,12.52,30.66,16.38A157,157,0,0,1,48,21.8,76.42,76.42,0,0,0,32.19,43.1a78.75,78.75,0,0,0-8,26.51l-.14,2h.11c-.06,10.56,8,19.84,19.5,23.48V48.92a30.65,30.65,0,0,0-11.07,5.77,77.73,77.73,0,0,1,4-9.51A71.19,71.19,0,0,1,59.46,18.82q2-1.41,4.22-2.73L80.37,5.2C80.14,5.22,78,5.4,74.69,5.35ZM60.83,13.91H57.89a83.5,83.5,0,0,1-14.27-1.62C35.3,10.65,28.4,10.19,22.09,12A39.68,39.68,0,0,1,26,10.22a29.18,29.18,0,0,1,15.69-2,168.84,168.84,0,0,1,18.46,4.21c1.3.37,2,.59,2,.59Z"/></g></g></g></svg>